<?xml version="1.0" encoding="utf-8"?>
<!-- Generator: Adobe Illustrator 15.0.2, SVG Export Plug-In . SVG Version: 6.00 Build 0)  -->
<svg version="1.2" baseProfile="tiny" id="Слой_1"
	 xmlns="http://www.w3.org/2000/svg" xmlns:xlink="http://www.w3.org/1999/xlink" x="0px" y="0px" width="23px" height="13px"
	 viewBox="0 0 23 13" xml:space="preserve">
<g>
	<path d="M4.138,2.023C5.109,1.867,6.093,1.795,7.04,1.795c2.123,0,2.879,0.456,2.879,1.931c0,1.223-0.252,1.931-1.367,2.086v0.048
		c1.199,0.18,1.57,0.779,1.583,2.075c0.023,1.775-0.815,2.471-3.083,2.471c-1.032,0-2.123-0.096-3.094-0.228L4.03,8.355
		c1.115,0.048,1.595,0.06,2.303,0.06c0.983,0,1.235-0.083,1.235-0.839c0-0.636-0.168-0.84-0.923-0.828L5.049,6.772V5.189h1.595
		c0.792,0,0.852-0.252,0.852-0.744c0-0.552-0.192-0.671-0.924-0.671H4.21L4.138,2.023z"/>
	<path d="M11.182,1.963c1.055-0.06,2.122-0.12,3.538-0.12c2.842,0,3.861,0.899,3.861,4.258s-1.02,4.258-3.861,4.258
		c-1.38,0-2.495-0.048-3.538-0.12V1.963z M14.72,8.475c0.887,0,1.115-0.455,1.115-2.374s-0.229-2.375-1.115-2.375h-0.936v4.737
		L14.72,8.475z"/>
</g>
</svg>
