<?xml version="1.0" encoding="utf-8"?>
<!-- Generator: Adobe Illustrator 15.0.2, SVG Export Plug-In . SVG Version: 6.00 Build 0)  -->
<svg version="1.2" baseProfile="tiny" id="Слой_1"
	 xmlns="http://www.w3.org/2000/svg" xmlns:xlink="http://www.w3.org/1999/xlink" x="0px" y="0px" width="23px" height="23px"
	 viewBox="0 -5 23 23" xml:space="preserve">
<g>
	<path d="M1.063,0.412c1.42-0.227,2.86-0.332,4.248-0.332c3.106,0,4.213,0.663,4.213,2.806c0,1.778-0.37,2.807-2.001,3.032v0.069
		C9.278,6.249,9.82,7.12,9.839,9.005c0.035,2.578-1.193,3.59-4.512,3.59c-1.51,0-3.106-0.14-4.527-0.332l0.105-2.649
		c1.632,0.068,2.334,0.088,3.371,0.088c1.438,0,1.808-0.121,1.808-1.22c0-0.925-0.246-1.221-1.351-1.203L2.396,7.313v-2.3h2.334
		c1.159,0,1.247-0.366,1.247-1.081c0-0.803-0.281-0.976-1.354-0.976H1.168L1.063,0.412z"/>
	<path d="M11.372,0.324c1.543-0.087,3.107-0.174,5.179-0.174c4.159,0,5.649,1.307,5.649,6.188c0,4.882-1.492,6.188-5.649,6.188
		c-2.021,0-3.653-0.071-5.179-0.174V0.324z M16.551,9.789c1.297,0,1.631-0.663,1.631-3.451c0-2.789-0.336-3.452-1.631-3.452H15.18
		V9.77L16.551,9.789z"/>
</g>
</svg>
