<?xml version="1.0" encoding="UTF-8" ?>
<!DOCTYPE svg PUBLIC "-//W3C//DTD SVG 1.1//EN" "http://www.w3.org/Graphics/SVG/1.1/DTD/svg11.dtd">
<svg width="88pt" height="108pt" viewBox="0 0 88 108" version="1.1" xmlns="http://www.w3.org/2000/svg">
<g id="#4c88a4ff">
<path fill="#4c88a4" opacity="1.00" d=" M 40.98 2.16 C 42.88 0.92 45.40 0.27 47.43 1.63 C 52.67 4.62 57.67 8.02 62.87 11.08 C 71.18 16.48 80.00 21.12 88.00 26.96 L 88.00 60.62 C 86.23 55.10 85.06 49.41 83.08 43.96 C 80.72 44.01 78.37 44.05 76.01 44.10 C 74.23 49.69 72.82 55.38 71.27 61.02 C 73.05 60.99 74.83 60.97 76.61 60.95 C 76.79 60.16 77.13 58.59 77.30 57.80 C 78.84 57.79 80.37 57.74 81.90 57.70 C 82.08 58.51 82.42 60.13 82.59 60.94 C 84.40 60.95 86.20 60.96 88.00 60.97 L 88.00 81.04 C 85.24 83.74 81.73 85.43 78.48 87.44 C 68.30 93.60 58.10 99.72 47.93 105.90 C 45.86 107.35 43.09 107.60 40.98 106.08 C 28.56 98.45 16.19 90.74 3.73 83.16 C 1.63 82.09 0.36 80.04 0.00 77.74 L 0.00 58.32 C 0.26 49.57 0.09 40.81 0.20 32.06 C 0.18 29.22 0.91 26.03 3.70 24.70 C 16.10 17.15 28.57 9.71 40.98 2.16 M 20.78 44.30 C 20.68 49.86 20.75 55.42 20.74 60.99 C 24.56 60.85 28.57 61.54 32.25 60.25 C 35.12 59.13 35.44 55.63 35.51 52.98 C 35.52 50.02 35.41 46.07 32.22 44.73 C 28.56 43.41 24.57 44.15 20.78 44.30 M 38.78 44.72 C 36.21 46.36 36.39 50.65 38.77 52.42 C 36.78 54.53 36.06 58.41 38.68 60.31 C 41.23 61.57 44.13 60.94 46.66 59.99 C 48.85 61.33 51.38 60.99 53.75 60.44 C 53.34 58.81 53.12 56.88 51.01 56.91 C 51.02 56.26 51.03 54.94 51.03 54.28 C 51.53 54.26 52.51 54.23 53.00 54.21 C 53.00 53.42 53.00 51.85 53.00 51.06 C 52.52 51.03 51.54 50.99 51.06 50.96 C 51.02 50.47 50.96 49.48 50.93 48.99 C 49.61 49.00 48.29 49.01 46.97 49.03 C 47.02 51.90 43.96 50.80 42.15 50.82 C 42.46 49.81 41.77 47.53 43.40 47.55 C 44.67 47.45 45.93 47.40 47.20 47.39 C 47.33 46.53 47.59 44.82 47.72 43.97 C 44.75 44.07 41.64 43.73 38.78 44.72 M 59.40 44.50 C 56.92 45.14 55.70 47.71 55.62 50.10 C 55.44 53.03 55.20 56.39 56.97 58.92 C 59.80 61.76 64.49 61.62 67.88 59.90 C 70.23 58.51 70.40 55.47 70.51 53.04 C 70.46 50.28 70.53 46.75 67.89 45.09 C 65.33 43.69 62.16 43.80 59.40 44.50 M 60.64 63.89 C 62.97 65.22 65.40 66.39 67.94 67.25 C 68.38 65.85 68.82 64.46 69.25 63.06 C 66.75 62.59 64.28 61.96 61.76 61.57 C 61.48 62.15 60.92 63.31 60.64 63.89 Z" />
<path fill="#4c88a4" opacity="1.00" d=" M 26.01 47.61 C 27.18 48.01 29.31 47.24 29.64 48.90 C 30.21 51.23 30.21 53.71 29.65 56.04 C 29.37 57.77 27.19 57.00 26.00 57.37 C 26.00 54.12 26.00 50.86 26.01 47.61 Z" />
<path fill="#4c88a4" opacity="1.00" d=" M 61.42 48.32 C 62.49 47.47 63.54 47.48 64.59 48.37 C 65.23 51.08 65.21 53.96 64.58 56.68 C 63.50 57.53 62.45 57.52 61.43 56.64 C 60.75 53.93 60.79 51.04 61.42 48.32 Z" />
<path fill="#4c88a4" opacity="1.00" d=" M 79.50 47.61 C 80.23 49.70 80.70 51.87 81.04 54.05 C 80.33 54.00 78.90 53.89 78.18 53.83 C 78.62 51.76 79.02 49.68 79.50 47.61 Z" />
<path fill="#4c88a4" opacity="1.00" d=" M 42.48 54.36 C 43.72 54.31 44.97 54.26 46.21 54.20 C 46.22 54.88 46.23 56.23 46.24 56.91 C 44.96 56.91 43.68 56.90 42.40 56.87 C 42.42 56.24 42.46 54.99 42.48 54.36 Z" />
</g>
<g id="#f4f5f6ff">
<path fill="#f4f5f6" opacity="1.00" d=" M 20.78 44.30 C 24.57 44.15 28.56 43.41 32.22 44.73 C 35.41 46.07 35.52 50.02 35.51 52.98 C 35.44 55.63 35.12 59.13 32.25 60.25 C 28.57 61.54 24.56 60.85 20.74 60.99 C 20.75 55.42 20.68 49.86 20.78 44.30 M 26.01 47.61 C 26.00 50.86 26.00 54.12 26.00 57.37 C 27.19 57.00 29.37 57.77 29.65 56.04 C 30.21 53.71 30.21 51.23 29.64 48.90 C 29.31 47.24 27.18 48.01 26.01 47.61 Z" />
<path fill="#f4f5f6" opacity="1.00" d=" M 38.78 44.72 C 41.64 43.73 44.75 44.07 47.72 43.97 C 47.59 44.82 47.33 46.53 47.20 47.39 C 45.93 47.40 44.67 47.45 43.40 47.55 C 41.77 47.53 42.46 49.81 42.15 50.82 C 43.96 50.80 47.02 51.90 46.97 49.03 C 48.29 49.01 49.61 49.00 50.93 48.99 C 50.96 49.48 51.02 50.47 51.06 50.96 C 51.54 50.99 52.52 51.03 53.00 51.06 C 53.00 51.85 53.00 53.42 53.00 54.21 C 52.51 54.23 51.53 54.26 51.03 54.28 C 51.03 54.94 51.02 56.26 51.01 56.91 C 53.12 56.88 53.34 58.81 53.75 60.44 C 51.38 60.99 48.85 61.33 46.66 59.99 C 44.13 60.94 41.23 61.57 38.68 60.31 C 36.06 58.41 36.78 54.53 38.77 52.42 C 36.39 50.65 36.21 46.36 38.78 44.72 M 42.48 54.36 C 42.46 54.99 42.42 56.24 42.40 56.87 C 43.68 56.90 44.96 56.91 46.24 56.91 C 46.23 56.23 46.22 54.88 46.21 54.20 C 44.97 54.26 43.72 54.31 42.48 54.36 Z" />
<path fill="#f4f5f6" opacity="1.00" d=" M 59.40 44.50 C 62.16 43.80 65.33 43.69 67.89 45.09 C 70.53 46.75 70.46 50.28 70.51 53.04 C 70.40 55.47 70.23 58.51 67.88 59.90 C 64.49 61.62 59.80 61.76 56.97 58.92 C 55.20 56.39 55.44 53.03 55.62 50.10 C 55.70 47.71 56.92 45.14 59.40 44.50 M 61.42 48.32 C 60.79 51.04 60.75 53.93 61.43 56.64 C 62.45 57.52 63.50 57.53 64.58 56.68 C 65.21 53.96 65.23 51.08 64.59 48.37 C 63.54 47.48 62.49 47.47 61.42 48.32 Z" />
<path fill="#f4f5f6" opacity="1.00" d=" M 76.01 44.10 C 78.37 44.05 80.72 44.01 83.08 43.96 C 85.06 49.41 86.23 55.10 88.00 60.62 L 88.00 60.97 C 86.20 60.96 84.40 60.95 82.59 60.94 C 82.42 60.13 82.08 58.51 81.90 57.70 C 80.37 57.74 78.84 57.79 77.30 57.80 C 77.13 58.59 76.79 60.16 76.61 60.95 C 74.83 60.97 73.05 60.99 71.27 61.02 C 72.82 55.38 74.23 49.69 76.01 44.10 M 79.50 47.61 C 79.02 49.68 78.62 51.76 78.18 53.83 C 78.90 53.89 80.33 54.00 81.04 54.05 C 80.70 51.87 80.23 49.70 79.50 47.61 Z" />
<path fill="#f4f5f6" opacity="1.00" d=" M 60.64 63.89 C 60.92 63.31 61.48 62.15 61.76 61.57 C 64.28 61.96 66.75 62.59 69.25 63.06 C 68.82 64.46 68.38 65.85 67.94 67.25 C 65.40 66.39 62.97 65.22 60.64 63.89 Z" />
</g>
</svg>
