<?xml version="1.0" encoding="UTF-8" ?>
<!DOCTYPE svg PUBLIC "-//W3C//DTD SVG 1.1//EN" "http://www.w3.org/Graphics/SVG/1.1/DTD/svg11.dtd">
<svg width="30pt" height="14pt" viewBox="0 0 30 14" version="1.1" xmlns="http://www.w3.org/2000/svg">
<g id="#212121cd">
<path fill="#212121" opacity="0.80" d=" M 16.95 0.00 L 19.34 0.00 C 17.31 4.60 15.90 9.44 13.80 14.00 L 11.41 14.00 C 13.50 9.43 14.90 4.58 16.95 0.00 Z" />
<path fill="#212121" opacity="0.80" d=" M 0.11 7.14 C 3.75 5.16 7.42 3.16 11.41 1.97 C 9.87 4.95 6.45 5.80 3.67 7.15 C 6.44 8.43 9.81 9.12 11.50 11.94 C 7.42 11.12 3.61 9.35 0.11 7.14 Z" />
<path fill="#212121" opacity="0.80" d=" M 19.07 1.78 C 22.88 3.04 26.44 4.90 30.00 6.71 L 30.00 7.70 C 26.52 9.56 22.85 11.06 19.05 12.14 C 20.82 9.38 23.99 8.36 26.90 7.28 C 23.98 5.95 20.91 4.56 19.07 1.78 Z" />
</g>
</svg>
