<?xml version="1.0" encoding="utf-8"?>
<!-- Generator: Adobe Illustrator 15.0.2, SVG Export Plug-In . SVG Version: 6.00 Build 0)  -->
<svg version="1.2" baseProfile="tiny" id="Слой_1"
	 xmlns="http://www.w3.org/2000/svg" xmlns:xlink="http://www.w3.org/1999/xlink" x="0px" y="0px" width="27px" height="27px"
	 viewBox="0 0 27 27" xml:space="preserve">
<rect fill="#4C88A4" width="29.05" height="27"/>
<g id="_x23_d1dfe6ff">
	<path fill="#FFFFFF" d="M14.12,8.17c0.53-0.09,1.58-0.27,2.11-0.36c-1.451,4.34-2.811,8.76-4.76,12.9
		c-0.55,0.17-1.64,0.5-2.18,0.67C10.68,16.91,12.07,12.38,14.12,8.17z"/>
	<path fill="#FFFFFF" d="M0,14.061c3-1.621,6.05-3.221,9.35-4.11C8,12.69,4.84,13.41,2.31,14.6c2.52,1.11,5.72,1.681,6.97,4.461
		C6.05,18.22,2.89,17.01,0,15.32V14.061z"/>
	<path fill="#FFFFFF" d="M16.82,9.77c3.109,1.45,6.289,2.78,9.229,4.541c-0.11,0.289-0.319,0.869-0.43,1.159
		c-2.841,1.45-5.89,2.421-8.79,3.74c-0.13-3.39,4.22-3.25,6.449-4.649C21.04,13.21,16.609,13.25,16.82,9.77z"/>
</g>
</svg>
