<?xml version="1.0" encoding="UTF-8" ?>
<!DOCTYPE svg PUBLIC "-//W3C//DTD SVG 1.1//EN" "http://www.w3.org/Graphics/SVG/1.1/DTD/svg11.dtd">
<svg width="88pt" height="108pt" viewBox="0 0 88 108" version="1.1" xmlns="http://www.w3.org/2000/svg">
<g id="#d6c359ff">
<path fill="#d6c359" opacity="1.00" d=" M 38.99 3.00 C 40.83 1.97 42.82 0.43 45.06 0.97 C 48.08 2.04 50.63 4.06 53.35 5.71 C 63.55 12.12 73.78 18.49 84.00 24.87 C 86.03 26.08 87.67 28.01 88.00 30.41 L 88.00 42.98 L 87.54 43.40 C 83.52 43.28 79.04 42.16 75.41 44.48 C 72.43 46.59 72.25 50.69 72.24 54.01 C 72.32 57.25 72.83 61.34 76.11 62.92 C 79.84 64.69 84.12 64.03 88.00 63.16 L 88.00 80.52 L 87.47 76.92 C 87.15 79.36 86.64 82.05 84.20 83.18 C 72.05 90.75 59.77 98.12 47.61 105.67 C 45.58 107.04 42.88 107.81 40.72 106.24 C 28.76 98.93 16.97 91.31 4.99 84.00 C 2.47 82.69 0.26 80.61 0.00 77.63 L 0.00 58.62 C 0.27 49.75 0.08 40.88 0.21 32.02 C 0.19 29.23 0.89 26.07 3.62 24.73 C 15.37 17.43 27.23 10.29 38.99 3.00 M 16.64 45.34 C 16.38 51.56 16.13 57.78 15.97 64.00 C 17.88 64.00 19.78 64.00 21.69 63.99 C 21.96 58.45 21.93 52.91 22.44 47.39 C 23.79 51.67 23.79 56.32 25.54 60.46 C 27.75 61.16 31.25 61.85 32.97 59.90 C 34.35 55.91 34.51 51.60 35.66 47.53 C 36.33 52.97 36.41 58.46 36.54 63.94 C 38.46 63.93 40.38 64.01 42.30 64.03 C 42.20 58.31 41.88 52.60 41.71 46.89 C 41.50 45.55 41.88 43.42 40.01 43.21 C 37.30 42.87 34.31 42.56 31.74 43.67 C 30.04 47.91 30.01 52.64 29.19 57.11 C 28.44 53.13 28.00 49.09 27.04 45.15 C 26.76 42.67 23.79 43.02 21.98 42.92 C 20.03 43.08 16.67 42.50 16.64 45.34 M 45.00 43.00 C 45.00 50.00 45.00 57.00 45.00 64.00 C 47.15 64.00 49.30 64.00 51.45 64.00 C 51.47 57.00 51.47 50.00 51.46 43.00 C 49.30 43.00 47.15 43.00 45.00 43.00 M 57.47 43.57 C 53.87 44.40 53.20 49.20 54.77 52.03 C 56.86 55.57 62.16 55.02 64.22 58.50 C 60.98 58.58 57.75 58.52 54.51 58.51 C 54.32 60.03 54.33 61.53 54.55 62.99 C 58.44 64.08 62.64 64.40 66.61 63.54 C 71.59 62.60 71.87 54.47 67.45 52.56 C 64.88 51.31 62.19 50.29 59.81 48.68 C 62.97 48.23 66.17 48.14 69.36 48.29 C 69.51 46.84 69.71 45.39 69.95 43.95 C 65.86 43.14 61.56 42.40 57.47 43.57 Z" />
<path fill="#d6c359" opacity="1.00" d=" M 78.99 55.14 C 78.93 53.01 78.67 50.57 80.00 48.73 C 82.65 48.35 85.33 48.39 88.00 48.34 L 88.00 57.66 C 85.16 59.08 78.63 59.96 78.99 55.14 Z" />
</g>
<g id="#f4f5f6ff">
<path fill="#f4f5f6" opacity="1.00" d=" M 16.64 45.34 C 16.67 42.50 20.03 43.08 21.98 42.92 C 23.79 43.02 26.76 42.67 27.04 45.15 C 28.00 49.09 28.44 53.13 29.19 57.11 C 30.01 52.64 30.04 47.91 31.74 43.67 C 34.31 42.56 37.30 42.87 40.01 43.21 C 41.88 43.42 41.50 45.55 41.71 46.89 C 41.88 52.60 42.20 58.31 42.30 64.03 C 40.38 64.01 38.46 63.93 36.54 63.94 C 36.41 58.46 36.33 52.97 35.66 47.53 C 34.51 51.60 34.35 55.91 32.97 59.90 C 31.25 61.85 27.75 61.16 25.54 60.46 C 23.79 56.32 23.79 51.67 22.44 47.39 C 21.93 52.91 21.96 58.45 21.69 63.99 C 19.78 64.00 17.88 64.00 15.97 64.00 C 16.13 57.78 16.38 51.56 16.64 45.34 Z" />
<path fill="#f4f5f6" opacity="1.00" d=" M 45.00 43.00 C 47.15 43.00 49.30 43.00 51.46 43.00 C 51.47 50.00 51.47 57.00 51.45 64.00 C 49.30 64.00 47.15 64.00 45.00 64.00 C 45.00 57.00 45.00 50.00 45.00 43.00 Z" />
<path fill="#f4f5f6" opacity="1.00" d=" M 57.47 43.57 C 61.56 42.40 65.86 43.14 69.95 43.95 C 69.71 45.39 69.51 46.84 69.36 48.29 C 66.17 48.14 62.97 48.23 59.81 48.68 C 62.19 50.29 64.88 51.31 67.45 52.56 C 71.87 54.47 71.59 62.60 66.61 63.54 C 62.64 64.40 58.44 64.08 54.55 62.99 C 54.33 61.53 54.32 60.03 54.51 58.51 C 57.75 58.52 60.98 58.58 64.22 58.50 C 62.16 55.02 56.86 55.57 54.77 52.03 C 53.20 49.20 53.87 44.40 57.47 43.57 Z" />
<path fill="#f4f5f6" opacity="1.00" d=" M 75.41 44.48 C 79.04 42.16 83.52 43.28 87.54 43.40 L 88.00 42.98 L 88.00 48.34 C 85.33 48.39 82.65 48.35 80.00 48.73 C 78.67 50.57 78.93 53.01 78.99 55.14 C 78.63 59.96 85.16 59.08 88.00 57.66 L 88.00 63.16 C 84.12 64.03 79.84 64.69 76.11 62.92 C 72.83 61.34 72.32 57.25 72.24 54.01 C 72.25 50.69 72.43 46.59 75.41 44.48 Z" />
</g>
</svg>
