<?xml version="1.0" encoding="utf-8"?>
<!-- Generator: Adobe Illustrator 15.0.2, SVG Export Plug-In . SVG Version: 6.00 Build 0)  -->
<svg version="1.2" baseProfile="tiny" id="Слой_1"
	 xmlns="http://www.w3.org/2000/svg" xmlns:xlink="http://www.w3.org/1999/xlink" x="0px" y="0px" width="27px" height="27px"
	 viewBox="0 0 27 27" xml:space="preserve">
<rect fill="#A44C57" width="27" height="27"/>
<g>
	<g>
		<g>
			<path display="none" fill="#FFFFFF" d="M-12.908-13c18.054,0,36.108,0,54.162,0c0,18.667,0,37.334,0,56
				c-18.083,0-36.167,0-54.25,0c0-18.576,0-37.15,0-55.727C-13.004-12.856-13.011-12.985-12.908-13z M8.209,8.889
				c-0.769,0.984-1.688,1.98-2.651,3.192c-0.879,1.107-1.731,2.178-1.855,3.647c-0.559,6.611,8.895,6.965,9.454,1.187
				c0.678,0,1.356,0,2.033,0c0.514,2.712,2.354,4.433,5.124,4.194c2.412-0.205,4.541-2.613,4.241-5.471
				c-0.161-1.535-1.228-2.652-2.031-3.648c-0.379-0.468-1.973-3.023-2.65-3.101c-0.779-0.089-2.38,1.269-2.563,1.824
				c0.069,0.02,0.102,0.076,0.088,0.183c0.677,0.466,1.422-0.36,2.033-0.547c0.183,0.299,0.707,0.727,0.618,1.003
				c-2.943,0.124-4.394,1.789-4.947,4.378c-0.679,0-1.356,0-2.033,0c-0.407-2.743-2.016-4.244-4.948-4.378
				c0.206-0.395,0.433-0.768,0.795-1.003c0.509,0.269,1.565,1.174,2.032,0.365C10.465,9.662,9.35,9.262,8.209,8.889z"/>
			<path fill="#FFFFFF" d="M10.948,10.713c-0.467,0.809-1.523-0.096-2.032-0.364c-0.361,0.235-0.588,0.608-0.795,1.003
				c2.932,0.135,4.541,1.636,4.948,4.378c0.676,0,1.354,0,2.033,0c0.554-2.589,2.004-4.254,4.947-4.378
				c0.089-0.276-0.436-0.704-0.618-1.003c-0.611,0.187-1.356,1.013-2.033,0.547c0.015-0.106-0.019-0.163-0.088-0.183
				c0.184-0.556,1.783-1.913,2.563-1.824c0.678,0.078,2.271,2.633,2.65,3.101c0.804,0.998,1.87,2.113,2.031,3.648
				c0.3,2.856-1.829,5.266-4.241,5.471c-2.771,0.238-4.609-1.482-5.124-4.194c-0.677,0-1.355,0-2.033,0
				c-0.559,5.778-10.013,5.426-9.454-1.187c0.125-1.47,0.976-2.541,1.855-3.647C6.52,10.869,7.44,9.873,8.209,8.889
				C9.35,9.262,10.465,9.662,10.948,10.713z M4.94,16.003C4.826,18.264,6.669,20,8.74,19.834c4.45-0.355,3.857-7.308-0.442-7.114
				C6.153,12.817,5.032,14.167,4.94,16.003z M19.607,19.834c1.71,0.092,3.918-1.169,3.711-3.922
				c-0.154-2.043-1.864-3.287-3.623-3.192C15.053,12.969,15.64,19.621,19.607,19.834z"/>
			<path display="none" fill="#FFFFFF" d="M8.297,12.72c4.299-0.194,4.892,6.758,0.441,7.114C6.668,20,4.826,18.264,4.94,16.003
				C5.032,14.167,6.153,12.817,8.297,12.72z"/>
			<path display="none" fill="#FFFFFF" d="M19.695,12.72c1.759-0.094,3.469,1.149,3.623,3.192c0.207,2.753-2.001,4.014-3.711,3.922
				C15.64,19.621,15.053,12.969,19.695,12.72z"/>
		</g>
	</g>
</g>
</svg>
