<?xml version="1.0" encoding="utf-8"?>
<!-- Generator: Adobe Illustrator 15.0.2, SVG Export Plug-In . SVG Version: 6.00 Build 0)  -->
<svg version="1.2" baseProfile="tiny" id="Слой_1"
	 xmlns="http://www.w3.org/2000/svg" xmlns:xlink="http://www.w3.org/1999/xlink" x="0px" y="0px" width="23px" height="23px"
	 viewBox="0 0 23 23" xml:space="preserve">
<g>
	<path display="none" fill-rule="evenodd" fill="#FFFFFF" d="M-17.406-17c19.302,0,38.604,0,57.906,0c0,19.333,0,38.667,0,58
		c-19.333,0-38.667,0-58,0c0-19.239,0-38.478,0-57.717C-17.508-16.851-17.516-16.984-17.406-17z M5.171,5.671
		C4.349,6.69,3.366,7.722,2.337,8.977c-0.94,1.147-1.851,2.256-1.983,3.779c-0.598,6.847,9.51,7.213,10.107,1.228
		c0.724,0,1.448,0,2.173,0c0.549,2.81,2.515,4.591,5.479,4.346c2.579-0.214,4.854-2.709,4.534-5.668
		c-0.172-1.589-1.312-2.745-2.173-3.778c-0.404-0.485-2.107-3.131-2.834-3.212C16.808,5.579,15.097,6.985,14.9,7.56
		c0.074,0.021,0.11,0.079,0.095,0.189c0.723,0.483,1.52-0.373,2.173-0.566c0.195,0.31,0.755,0.752,0.661,1.039
		c-3.146,0.128-4.697,1.853-5.29,4.534c-0.724,0-1.448,0-2.173,0c-0.434-2.84-2.155-4.395-5.29-4.534
		c0.221-0.409,0.463-0.796,0.85-1.039C6.472,7.46,7.6,8.398,8.099,7.56C7.583,6.471,6.391,6.057,5.171,5.671z"/>
	<path fill-rule="evenodd" d="M8.099,7.56C7.6,8.398,6.472,7.46,5.927,7.183c-0.387,0.243-0.629,0.63-0.85,1.039
		c3.135,0.14,4.855,1.694,5.29,4.534c0.725,0,1.449,0,2.173,0c0.593-2.682,2.144-4.406,5.29-4.534
		c0.094-0.287-0.466-0.729-0.661-1.039c-0.653,0.193-1.45,1.049-2.173,0.566c0.016-0.11-0.021-0.168-0.095-0.189
		c0.196-0.575,1.907-1.981,2.739-1.889c0.727,0.081,2.43,2.727,2.834,3.212c0.861,1.033,2.001,2.189,2.173,3.778
		c0.32,2.959-1.955,5.454-4.534,5.668c-2.964,0.245-4.93-1.536-5.479-4.346c-0.725,0-1.449,0-2.173,0
		c-0.598,5.985-10.705,5.619-10.107-1.228c0.133-1.523,1.043-2.632,1.983-3.779C3.366,7.722,4.349,6.69,5.171,5.671
		C6.391,6.057,7.583,6.471,8.099,7.56z M1.676,13.039c-0.122,2.34,1.848,4.14,4.062,3.968c4.758-0.369,4.124-7.569-0.472-7.368
		C2.973,9.739,1.775,11.137,1.676,13.039z M17.356,17.007c1.829,0.095,4.188-1.211,3.968-4.063
		c-0.164-2.115-1.993-3.404-3.873-3.306C12.487,9.896,13.116,16.786,17.356,17.007z"/>
	<path display="none" fill-rule="evenodd" fill="#FFFFFF" d="M5.266,9.639c4.596-0.201,5.23,6.999,0.472,7.368
		c-2.214,0.172-4.184-1.628-4.062-3.968C1.775,11.137,2.973,9.739,5.266,9.639z"/>
	<path display="none" fill-rule="evenodd" fill="#FFFFFF" d="M17.451,9.639c1.88-0.098,3.709,1.19,3.873,3.306
		c0.221,2.852-2.139,4.157-3.968,4.063C13.116,16.786,12.487,9.896,17.451,9.639z"/>
</g>
</svg>
