<?xml version="1.0" encoding="UTF-8" ?>
<!DOCTYPE svg PUBLIC "-//W3C//DTD SVG 1.1//EN" "http://www.w3.org/Graphics/SVG/1.1/DTD/svg11.dtd">
<svg width="88pt" height="108pt" viewBox="0 0 88 108" version="1.1" xmlns="http://www.w3.org/2000/svg">
<g id="#a44c57ff">
<path fill="#a44c57" opacity="1.00" d=" M 39.55 2.45 C 41.17 1.54 43.05 0.36 44.98 1.05 C 47.95 2.20 50.47 4.23 53.18 5.88 C 63.20 12.16 73.17 18.51 83.21 24.76 C 84.79 25.77 86.45 27.10 86.70 29.09 C 87.34 33.69 86.81 38.37 86.91 43.00 C 84.69 43.00 82.48 43.01 80.26 43.01 C 80.25 44.33 80.25 45.65 80.26 46.97 C 81.75 46.99 83.25 47.01 84.74 47.03 C 84.74 51.34 84.73 55.66 84.74 59.97 C 85.27 59.98 86.34 59.99 86.87 60.00 C 86.69 65.90 87.04 71.82 86.67 77.72 C 86.57 80.02 85.47 82.24 83.36 83.32 C 71.44 90.76 59.42 98.05 47.51 105.52 C 45.88 106.44 44.00 107.64 42.06 106.98 C 39.28 105.93 36.92 104.05 34.41 102.51 C 25.22 96.73 16.06 90.91 6.84 85.16 C 3.87 83.40 0.22 81.52 0.00 77.59 L 0.00 46.99 C 0.40 41.38 -0.08 35.74 0.35 30.14 C 0.42 27.87 1.61 25.78 3.62 24.70 C 15.56 17.23 27.62 9.94 39.55 2.45 M 20.38 43.57 C 17.38 44.84 17.25 49.39 19.51 51.43 C 21.65 53.04 24.60 53.41 26.35 55.57 C 23.74 55.79 21.11 55.72 18.50 55.58 C 18.43 56.85 18.38 58.12 18.34 59.40 C 22.11 59.68 26.32 60.84 29.80 58.83 C 31.82 56.91 31.80 53.13 29.64 51.30 C 27.45 49.80 24.69 49.30 22.71 47.48 C 25.25 47.27 27.80 47.23 30.34 47.26 C 30.50 46.10 30.66 44.94 30.82 43.79 C 27.41 43.05 23.78 42.44 20.38 43.57 M 32.26 43.01 C 32.26 44.33 32.26 45.66 32.26 46.98 C 33.75 46.99 35.25 47.01 36.74 47.02 C 36.73 51.34 36.73 55.67 36.74 60.00 C 38.49 60.00 40.24 60.00 42.00 60.00 C 42.00 55.67 42.00 51.34 42.00 47.01 C 43.49 47.00 44.98 47.00 46.47 46.99 C 46.46 45.66 46.46 44.33 46.47 43.01 C 41.73 43.00 36.99 42.99 32.26 43.01 M 51.90 43.01 C 49.88 48.55 48.67 54.34 47.02 60.00 C 48.78 60.00 50.55 60.00 52.32 60.01 C 52.58 58.91 52.85 57.82 53.12 56.73 C 54.62 56.73 56.12 56.73 57.62 56.73 C 57.81 57.53 58.20 59.14 58.40 59.95 C 60.18 59.98 61.95 59.99 63.74 60.02 C 62.15 54.38 60.79 48.68 58.99 43.11 C 56.63 43.04 54.27 42.98 51.90 43.01 M 65.03 43.22 C 64.98 48.81 65.01 54.41 65.00 60.00 C 66.66 60.00 68.33 60.00 70.00 60.00 C 70.01 57.99 69.99 55.97 70.01 53.96 C 70.72 54.00 72.13 54.07 72.84 54.11 C 73.29 56.07 73.78 58.02 74.18 59.99 C 76.01 60.00 77.83 60.00 79.66 60.01 C 78.73 57.47 79.00 53.96 76.29 52.51 C 79.58 50.88 80.05 45.78 76.91 43.78 C 73.10 42.47 68.97 43.06 65.03 43.22 Z" />
<path fill="#a44c57" opacity="1.00" d=" M 53.96 53.01 C 54.34 50.82 54.83 48.65 55.46 46.52 C 55.97 48.65 56.37 50.80 56.79 52.95 C 56.08 52.96 54.66 52.99 53.96 53.01 Z" />
<path fill="#a44c57" opacity="1.00" d=" M 70.00 46.77 C 70.84 46.74 72.51 46.68 73.35 46.65 C 73.51 47.74 73.68 48.83 73.87 49.92 C 72.59 50.09 71.30 50.24 70.01 50.38 C 70.01 49.48 70.00 47.67 70.00 46.77 Z" />
</g>
<g id="#f4f5f6ff">
<path fill="#f4f5f6" opacity="1.00" d=" M 20.38 43.57 C 23.78 42.44 27.41 43.05 30.82 43.79 C 30.66 44.94 30.50 46.10 30.34 47.26 C 27.80 47.23 25.25 47.27 22.71 47.48 C 24.69 49.30 27.45 49.80 29.64 51.30 C 31.80 53.13 31.82 56.91 29.80 58.83 C 26.32 60.84 22.11 59.68 18.34 59.40 C 18.38 58.12 18.43 56.85 18.50 55.58 C 21.11 55.72 23.74 55.79 26.35 55.57 C 24.60 53.41 21.65 53.04 19.51 51.43 C 17.25 49.39 17.38 44.84 20.38 43.57 Z" />
<path fill="#f4f5f6" opacity="1.00" d=" M 32.26 43.01 C 36.99 42.99 41.73 43.00 46.47 43.01 C 46.46 44.33 46.46 45.66 46.47 46.99 C 44.98 47.00 43.49 47.00 42.00 47.01 C 42.00 51.34 42.00 55.67 42.00 60.00 C 40.24 60.00 38.49 60.00 36.74 60.00 C 36.73 55.67 36.73 51.34 36.74 47.02 C 35.25 47.01 33.75 46.99 32.26 46.98 C 32.26 45.66 32.26 44.33 32.26 43.01 Z" />
<path fill="#f4f5f6" opacity="1.00" d=" M 51.90 43.01 C 54.27 42.98 56.63 43.04 58.99 43.11 C 60.79 48.68 62.15 54.38 63.74 60.02 C 61.95 59.99 60.18 59.98 58.40 59.95 C 58.20 59.14 57.81 57.53 57.62 56.73 C 56.12 56.73 54.62 56.73 53.12 56.73 C 52.85 57.82 52.58 58.91 52.32 60.01 C 50.55 60.00 48.78 60.00 47.02 60.00 C 48.67 54.34 49.88 48.55 51.90 43.01 M 53.96 53.01 C 54.66 52.99 56.08 52.96 56.79 52.95 C 56.37 50.80 55.97 48.65 55.46 46.52 C 54.83 48.65 54.34 50.82 53.96 53.01 Z" />
<path fill="#f4f5f6" opacity="1.00" d=" M 65.03 43.22 C 68.97 43.06 73.10 42.47 76.91 43.78 C 80.05 45.78 79.58 50.88 76.29 52.51 C 79.00 53.96 78.73 57.47 79.66 60.01 C 77.83 60.00 76.01 60.00 74.18 59.99 C 73.78 58.02 73.29 56.07 72.84 54.11 C 72.13 54.07 70.72 54.00 70.01 53.96 C 69.99 55.97 70.01 57.99 70.00 60.00 C 68.33 60.00 66.66 60.00 65.00 60.00 C 65.01 54.41 64.98 48.81 65.03 43.22 M 70.00 46.77 C 70.00 47.67 70.01 49.48 70.01 50.38 C 71.30 50.24 72.59 50.09 73.87 49.92 C 73.68 48.83 73.51 47.74 73.35 46.65 C 72.51 46.68 70.84 46.74 70.00 46.77 Z" />
<path fill="#f4f5f6" opacity="1.00" d=" M 80.26 43.01 C 82.48 43.01 84.69 43.00 86.91 43.00 L 88.00 43.00 L 88.00 60.00 L 86.87 60.00 C 86.34 59.99 85.27 59.98 84.74 59.97 C 84.73 55.66 84.74 51.34 84.74 47.03 C 83.25 47.01 81.75 46.99 80.26 46.97 C 80.25 45.65 80.25 44.33 80.26 43.01 Z" />
</g>
</svg>
