<?xml version="1.0" encoding="utf-8"?>
<!-- Generator: Adobe Illustrator 15.0.2, SVG Export Plug-In . SVG Version: 6.00 Build 0)  -->
<svg version="1.2" baseProfile="tiny" id="Слой_1"
	 xmlns="http://www.w3.org/2000/svg" xmlns:xlink="http://www.w3.org/1999/xlink" x="0px" y="0px" width="23px" height="23px"
	 viewBox="2.5 -1 23 23" xml:space="preserve">
<g id="_x23_383636ff">
	<path d="M19.868,5.679c-1.987-1.487,0.102-5.351,2.207-3.898c0.324,0.483,0.959,1.46,1.275,1.945
		C23.05,5.441,21.332,6.999,19.868,5.679z"/>
	<path d="M5.603,2.757c1.773-1.646,4.48,1.566,2.707,3.318C6.505,8.751,3.14,4.579,5.603,2.757z"/>
	<path d="M12.791,5.538c3.071-1.848,7.195,1.444,6.584,5.271c-0.309,3.795-4.819,5.934-7.44,3.408
		C9.22,12.043,9.774,7.053,12.791,5.538z"/>
	<path d="M3.133,11.196c0.839-0.809,1.599-2.199,2.889-1.724c1.845,0.502,1.995,3.495,0.261,4.323
		c-1.409,0.563-2.248-0.679-3.15-1.629V11.196z"/>
	<path d="M21.475,9.235c1.598-2.112,4.71,1.364,2.785,3.16C22.639,14.966,19.066,11.013,21.475,9.235z"/>
	<path d="M19.313,14.763c2.153-1.198,3.958,2.624,1.925,3.986C18.861,20.624,16.605,15.897,19.313,14.763z"/>
	<path d="M8.119,15.29c2.154-1.698,4.402,2.456,2.09,3.899C7.954,20.766,5.769,16.586,8.119,15.29z"/>
</g>
</svg>
