<?xml version="1.0" encoding="UTF-8" ?>
<!DOCTYPE svg PUBLIC "-//W3C//DTD SVG 1.1//EN" "http://www.w3.org/Graphics/SVG/1.1/DTD/svg11.dtd">
<svg width="28pt" height="21pt" viewBox="0 0 28 21" version="1.1" xmlns="http://www.w3.org/2000/svg">
<g id="#383636ff">
<path fill="#383636" opacity="1.00" d=" M 21.14 5.17 C 18.63 3.48 21.27 -0.91 23.93 0.74 C 24.34 1.29 25.14 2.40 25.54 2.95 C 25.16 4.90 22.99 6.67 21.14 5.17 Z" />
<path fill="#383636" opacity="1.00" d=" M 3.12 1.85 C 5.36 -0.02 8.78 3.63 6.54 5.62 C 4.26 8.66 0.01 3.92 3.12 1.85 Z" />
<path fill="#383636" opacity="1.00" d=" M 12.20 5.01 C 16.08 2.91 21.29 6.65 20.52 11.00 C 20.13 15.31 14.43 17.74 11.12 14.87 C 7.69 12.40 8.39 6.73 12.20 5.01 Z" />
<path fill="#383636" opacity="1.00" d=" M 0.00 11.44 C 1.06 10.52 2.02 8.94 3.65 9.48 C 5.98 10.05 6.17 13.45 3.98 14.39 C 2.20 15.03 1.14 13.62 0.00 12.54 L 0.00 11.44 Z" />
<path fill="#383636" opacity="1.00" d=" M 23.17 9.21 C 25.19 6.81 29.12 10.76 26.69 12.80 C 24.64 15.72 20.13 11.23 23.17 9.21 Z" />
<path fill="#383636" opacity="1.00" d=" M 20.44 15.49 C 23.16 14.13 25.44 18.47 22.87 20.02 C 19.87 22.15 17.02 16.78 20.44 15.49 Z" />
<path fill="#383636" opacity="1.00" d=" M 6.30 16.09 C 9.02 14.16 11.86 18.88 8.94 20.52 C 6.09 22.31 3.33 17.56 6.30 16.09 Z" />
</g>
</svg>
