<?xml version="1.0" encoding="utf-8"?>
<!-- Generator: Adobe Illustrator 15.0.2, SVG Export Plug-In . SVG Version: 6.00 Build 0)  -->
<svg version="1.2" baseProfile="tiny" id="Слой_1"
	 xmlns="http://www.w3.org/2000/svg" xmlns:xlink="http://www.w3.org/1999/xlink" x="0px" y="0px" width="27px" height="27px"
	 viewBox="0 0 27 27" xml:space="preserve">
<g id="_x23_a44c57ff">
	<path fill="#A44C57" d="M0,0h27v27H0V0 M5.33,7.4C2.77,9.2,6.75,12.51,8.3,9.98C9.54,8.04,6.95,6.15,5.33,7.4 M18.92,7
		c-1.87,1.72,1.34,4.68,2.85,2.64C24.15,8.18,20.48,4.6,18.92,7 M12.53,9.66c-3.08,1.21-3.72,5.79-0.93,7.67
		c2.64,2.279,7.05,0.09,7.179-3.27C19.17,10.85,15.42,8.24,12.53,9.66 M21.42,12.52c-2.59,0.82-0.96,4.93,1.48,3.7
		C25.141,15.26,23.67,11.69,21.42,12.52 M4.33,13.31c-2.22,0.94-0.56,4.65,1.58,3.52C8.68,16.16,6.72,11.96,4.33,13.31 M7.45,18.46
		c-2.24,1.7,1.21,4.78,2.82,2.75C12.07,19.55,9.13,16.58,7.45,18.46 M18.1,18.18c-2.77,2.34,2.98,5.25,3.221,1.851
		C22.359,18.34,19.2,16.55,18.1,18.18z"/>
</g>
<g id="_x23_fafafaff">
	<path fill="#FAFAFA" d="M5.33,7.4C6.95,6.15,9.54,8.04,8.3,9.98C6.75,12.51,2.77,9.2,5.33,7.4z"/>
	<path fill="#FAFAFA" d="M12.53,9.66c2.89-1.42,6.64,1.19,6.25,4.4c-0.129,3.359-4.539,5.549-7.179,3.27
		C8.81,15.45,9.45,10.87,12.53,9.66z"/>
	<path fill="#FAFAFA" d="M21.42,12.52c2.25-0.83,3.721,2.74,1.48,3.7C20.46,17.45,18.83,13.34,21.42,12.52z"/>
	<path fill="#FAFAFA" d="M4.33,13.31c2.39-1.35,4.35,2.85,1.58,3.52C3.77,17.96,2.11,14.25,4.33,13.31z"/>
	<path fill="#FAFAFA" d="M7.45,18.46c1.68-1.88,4.62,1.09,2.82,2.75C8.66,23.24,5.21,20.16,7.45,18.46z"/>
</g>
<g id="_x23_f7f4f4ff">
	<path fill="#F7F4F4" d="M18.92,7c1.561-2.4,5.23,1.18,2.85,2.64C20.26,11.68,17.05,8.72,18.92,7z"/>
</g>
<g id="_x23_f8f7f7ff">
	<path fill="#F8F7F7" d="M18.1,18.18c1.101-1.63,4.26,0.16,3.221,1.851C21.08,23.43,15.33,20.52,18.1,18.18z"/>
</g>
</svg>
