<?xml version="1.0" encoding="utf-8"?>
<!-- Generator: Adobe Illustrator 15.0.2, SVG Export Plug-In . SVG Version: 6.00 Build 0)  -->
<svg version="1.2" baseProfile="tiny" id="Слой_1"
	 xmlns="http://www.w3.org/2000/svg" xmlns:xlink="http://www.w3.org/1999/xlink" x="0px" y="0px" width="23px" height="23px"
	 viewBox="2.399 3.151 23 23" xml:space="preserve">
<g>
	<g>
		<path fill="#111111" d="M22.935,21.644l0.013-0.008l-7.128-7.352l3.236-3.323l2.89-1.913l1.148-2.121l-1.335-1.374l-2.066,1.182
			l-1.863,2.967l-3.232,3.32l-3.206-3.307l-0.014-4.369L7.029,4.151L6.563,4.625l2.313,2.373l-2.255,2.32L4.311,6.947L3.845,7.419
			l1.167,4.466l4.137,0.011l-0.025,0.028l3.267,3.369l-1.208,1.241l-0.792-0.813l-1.223,1.257l0.38,0.388
			c-1.098,0.433-4.128,3.545-4.55,4.672l-0.377-0.39l-1.221,1.256l2.806,2.882l1.223-1.257l-0.381-0.39
			c1.098-0.43,4.13-3.544,4.549-4.671l0.379,0.392l1.222-1.257l-0.791-0.814l1.205-1.236l7.125,7.346l0.012-0.011
			c0.609,0.604,1.577,0.604,2.171-0.012C23.52,23.264,23.521,22.271,22.935,21.644z M22.348,23.286c-0.268,0.274-0.7,0.278-0.971,0
			c-0.263-0.275-0.268-0.716-0.002-0.994c0.272-0.274,0.703-0.274,0.973,0C22.617,22.565,22.617,23.009,22.348,23.286z"/>
	</g>
</g>
</svg>
