<?xml version="1.0" encoding="UTF-8" ?>
<!DOCTYPE svg PUBLIC "-//W3C//DTD SVG 1.1//EN" "http://www.w3.org/Graphics/SVG/1.1/DTD/svg11.dtd">
<svg width="88pt" height="108pt" viewBox="0 0 88 108" version="1.1" xmlns="http://www.w3.org/2000/svg">
<g id="#79d7c2ff">
<path fill="#79d7c2" opacity="1.00" d=" M 40.92 1.95 C 43.05 0.46 45.75 0.65 47.82 2.14 C 59.98 9.67 72.10 17.29 84.29 24.77 C 86.38 25.87 87.76 27.85 88.00 30.21 L 88.00 43.73 C 86.28 43.87 84.56 44.00 82.85 44.14 C 82.58 48.69 82.19 53.24 81.69 57.78 C 81.07 53.22 80.46 48.67 79.81 44.13 C 77.60 44.16 75.40 44.15 73.20 44.10 C 72.57 48.67 71.95 53.23 71.34 57.81 C 70.80 53.22 70.43 48.62 70.18 44.01 C 68.45 44.00 66.73 43.99 65.01 43.99 C 65.74 49.62 66.48 55.26 67.31 60.88 C 69.79 60.86 72.27 60.88 74.75 60.95 C 75.40 56.21 75.96 51.46 76.47 46.70 C 77.04 51.45 77.63 56.19 78.24 60.93 C 80.72 60.88 83.21 60.87 85.69 60.90 C 86.44 55.42 87.26 49.96 88.00 44.48 L 88.00 61.50 C 87.67 67.29 88.28 73.13 87.57 78.89 C 87.43 81.50 85.11 82.97 83.11 84.17 C 71.03 91.43 59.05 98.86 46.96 106.12 C 44.88 107.57 42.24 107.33 40.23 105.90 C 29.09 99.01 18.00 92.03 6.84 85.17 C 4.08 83.47 0.60 81.91 0.00 78.33 L 0.00 31.53 C 0.26 28.87 1.00 25.93 3.62 24.66 C 16.03 17.07 28.47 9.49 40.92 1.95 M 17.00 43.99 C 17.91 49.49 18.11 55.11 19.47 60.53 C 21.67 61.24 24.44 61.49 26.55 60.49 C 27.90 56.05 27.71 51.31 28.49 46.76 C 29.33 51.30 29.08 56.10 30.49 60.51 C 32.58 61.53 35.29 61.16 37.50 60.58 C 38.94 55.17 39.07 49.50 40.00 43.99 C 38.28 44.00 36.57 44.00 34.85 44.01 C 34.56 48.51 34.27 53.01 33.68 57.49 C 33.00 53.69 32.76 49.83 32.10 46.04 C 31.80 42.89 27.50 43.94 25.37 44.42 C 24.07 48.60 24.26 53.05 23.41 57.33 C 22.68 52.92 22.43 48.46 22.19 44.01 C 20.46 44.00 18.73 44.00 17.00 43.99 M 41.00 43.99 C 41.91 49.50 42.13 55.13 43.46 60.56 C 45.73 61.26 48.30 61.35 50.56 60.60 C 51.85 56.09 51.74 51.34 52.50 46.74 C 53.21 51.54 53.29 56.45 54.64 61.14 C 56.92 60.95 59.35 61.32 61.53 60.51 C 62.92 55.11 63.08 49.48 64.00 43.99 C 62.28 44.00 60.56 44.00 58.84 44.01 C 58.58 48.57 58.27 53.14 57.60 57.66 C 56.84 53.25 56.91 48.68 55.61 44.38 C 53.59 43.79 51.39 43.75 49.38 44.40 C 48.06 48.72 48.22 53.32 47.34 57.73 C 46.76 53.17 46.45 48.59 46.19 44.01 C 44.46 44.00 42.73 44.00 41.00 43.99 Z" />
</g>
<g id="#f4f5f6ff">
<path fill="#f4f5f6" opacity="1.00" d=" M 17.00 43.99 C 18.73 44.00 20.46 44.00 22.19 44.01 C 22.43 48.46 22.68 52.92 23.41 57.33 C 24.26 53.05 24.07 48.60 25.37 44.42 C 27.50 43.94 31.80 42.89 32.10 46.04 C 32.76 49.83 33.00 53.69 33.68 57.49 C 34.27 53.01 34.56 48.51 34.85 44.01 C 36.57 44.00 38.28 44.00 40.00 43.99 C 39.07 49.50 38.94 55.17 37.50 60.58 C 35.29 61.16 32.58 61.53 30.49 60.51 C 29.08 56.10 29.33 51.30 28.49 46.76 C 27.71 51.31 27.90 56.05 26.55 60.49 C 24.44 61.49 21.67 61.24 19.47 60.53 C 18.11 55.11 17.91 49.49 17.00 43.99 Z" />
<path fill="#f4f5f6" opacity="1.00" d=" M 41.00 43.99 C 42.73 44.00 44.46 44.00 46.19 44.01 C 46.45 48.59 46.76 53.17 47.34 57.73 C 48.22 53.32 48.06 48.72 49.38 44.40 C 51.39 43.75 53.59 43.79 55.61 44.38 C 56.91 48.68 56.84 53.25 57.60 57.66 C 58.27 53.14 58.58 48.57 58.84 44.01 C 60.56 44.00 62.28 44.00 64.00 43.99 C 63.08 49.48 62.92 55.11 61.53 60.51 C 59.35 61.32 56.92 60.95 54.64 61.14 C 53.29 56.45 53.21 51.54 52.50 46.74 C 51.74 51.34 51.85 56.09 50.56 60.60 C 48.30 61.35 45.73 61.26 43.46 60.56 C 42.13 55.13 41.91 49.50 41.00 43.99 Z" />
<path fill="#f4f5f6" opacity="1.00" d=" M 65.01 43.99 C 66.73 43.99 68.45 44.00 70.18 44.01 C 70.43 48.62 70.80 53.22 71.34 57.81 C 71.95 53.23 72.57 48.67 73.20 44.10 C 75.40 44.15 77.60 44.16 79.81 44.13 C 80.46 48.67 81.07 53.22 81.69 57.78 C 82.19 53.24 82.58 48.69 82.85 44.14 C 84.56 44.00 86.28 43.87 88.00 43.73 L 88.00 44.48 C 87.26 49.96 86.44 55.42 85.69 60.90 C 83.21 60.87 80.72 60.88 78.24 60.93 C 77.63 56.19 77.04 51.45 76.47 46.70 C 75.96 51.46 75.40 56.21 74.75 60.95 C 72.27 60.88 69.79 60.86 67.31 60.88 C 66.48 55.26 65.74 49.62 65.01 43.99 Z" />
</g>
</svg>
